<svg width="115" height="54" viewBox="0 0 115 54" fill="none" xmlns="http://www.w3.org/2000/svg">
<path d="M64.8744 20.312L57.7357 9.31592V20.312H55.8412V6.09326H57.7357L64.9037 17.1187V6.09326H66.7787V20.312H64.8744ZM77.9701 16.5913H72.0423L70.6947 20.312H68.7415L74.1712 6.09326H75.4212H75.8314L81.2708 20.312H79.3275L77.9701 16.5913ZM77.4134 15.0581L75.0013 8.41748L72.599 15.0581H77.4134ZM93.2533 6.09326L87.9896 20.312H86.5247H86.3099L81.056 6.09326H83.1165L87.14 17.812L91.1927 6.09326H93.2533ZM103.214 6.09326H105.363L100.47 14.9995V20.312H98.5658V14.9995L93.6732 6.09326H95.8412L99.5228 13.2417L103.214 6.09326ZM60.0306 38.9546C58.5267 38.5184 57.3841 37.9748 56.6029 37.3237C55.8216 36.6662 55.431 35.8133 55.431 34.7651C55.431 34.0295 55.6296 33.3687 56.0267 32.7827C56.4303 32.1968 56.9968 31.7378 57.7259 31.4058C58.4616 31.0672 59.3047 30.8979 60.2552 30.8979C61.2904 30.8979 62.1856 31.0965 62.9408 31.4937C63.7025 31.8908 64.2819 32.4181 64.679 33.0757C65.0827 33.7332 65.2845 34.4396 65.2845 35.1948H63.3802C63.3802 34.3615 63.1165 33.6942 62.5892 33.1929C62.0619 32.6851 61.2839 32.4312 60.2552 32.4312C59.2982 32.4312 58.5723 32.6427 58.0775 33.0659C57.5827 33.4891 57.3353 34.0457 57.3353 34.7358C57.3353 35.1395 57.4492 35.4943 57.6771 35.8003C57.905 36.1063 58.2598 36.383 58.7415 36.6304C59.2233 36.8778 59.8581 37.1121 60.6458 37.3335C61.7396 37.6395 62.625 37.991 63.3021 38.3882C63.9857 38.7853 64.4902 39.2541 64.8158 39.7944C65.1478 40.3283 65.3138 40.9631 65.3138 41.6987C65.3138 42.4604 65.1087 43.131 64.6986 43.7104C64.2949 44.2834 63.7188 44.7261 62.9701 45.0386C62.2214 45.3511 61.349 45.5073 60.3529 45.5073C59.4479 45.5073 58.582 45.3413 57.7552 45.0093C56.9349 44.6707 56.2676 44.1759 55.7533 43.5249C55.2389 42.8739 54.9818 42.0959 54.9818 41.1909H56.8763C56.8763 41.8159 57.0326 42.3368 57.3451 42.7534C57.6641 43.1701 58.084 43.4793 58.6048 43.6812C59.1322 43.883 59.7149 43.9839 60.3529 43.9839C61.3229 43.9839 62.0749 43.7821 62.6087 43.3784C63.1426 42.9748 63.4095 42.4214 63.4095 41.7183C63.4095 41.256 63.3119 40.8719 63.1165 40.5659C62.9277 40.2534 62.5925 39.9735 62.1107 39.7261C61.6289 39.4722 60.9356 39.215 60.0306 38.9546ZM76.7494 43.7886V45.312H69.2396H67.7162V31.0933H69.6107H76.6517V32.6265H69.6107V37.2065H75.7533V38.73H69.6107V43.7886H76.7494ZM86.9349 41.5913H81.0072L79.6595 45.312H77.7064L83.1361 31.0933H84.3861H84.7962L90.2357 45.312H88.2923L86.9349 41.5913ZM86.3783 40.0581L83.9662 33.4175L81.5638 40.0581H86.3783ZM100.783 43.7886V45.312H93.6732H92.1497V31.0933H94.0443V43.7886H100.783Z" fill="white"/>
<g clip-path="url(#clip0)">
<path d="M24.2201 31.8654L22.0336 30.4372C21.9124 30.3581 21.8023 30.2679 21.7005 30.1707V47.7788C21.7005 49.1183 22.7534 50.2043 24.0522 50.2043C25.3511 50.2043 26.404 49.1183 26.404 47.7788V32.0271C25.692 32.357 24.872 32.2912 24.2201 31.8654Z" fill="white"/>
<path d="M29.3384 25.0508C28.6198 27.4217 28.3901 28.1798 27.6685 30.5605C27.5573 30.9275 27.3598 31.2582 27.1017 31.5269V47.7787C27.1017 49.1183 28.1546 50.2042 29.4534 50.2042C30.7523 50.2042 31.8052 49.1183 31.8052 47.7787C31.8052 47.0173 31.8052 26.573 31.8052 25.451L29.3384 25.0508Z" fill="white"/>
<path d="M23.0738 6.98521C23.513 8.67132 25.0045 9.91289 26.778 9.91289C28.8966 9.91289 30.6141 8.14151 30.6141 5.95647C30.6141 3.77144 28.8966 2.00006 26.778 2.00006C25.0045 2.00006 23.5129 3.24162 23.0737 4.92783C22.5309 3.98134 21.3516 3.65363 20.4204 4.19874L12.5479 8.81018C11.8636 9.21098 11.4783 9.99494 11.5691 10.801C11.6598 11.6071 12.2092 12.2791 12.9643 12.5074L21.7233 15.1V26.4828L23.9538 22.8651C23.625 22.2448 23.4843 21.5122 23.5991 20.7598C23.7379 19.8498 24.223 19.0848 24.894 18.5849C24.9218 18.2539 25.0251 17.9324 25.2024 17.6436C25.6629 16.8936 28.8272 11.7403 29.244 11.0615C28.4426 11.0615 22.9323 11.0615 22.1121 11.0615L18.5043 9.97018L22.3562 7.71382C22.6645 7.53345 22.9056 7.27901 23.0738 6.98521Z" fill="white"/>
<path d="M26.2778 24.5544C25.6942 24.4598 25.1725 24.2081 24.7456 23.8487L22.3133 27.7936C21.9779 28.3399 22.1353 29.0633 22.665 29.4093L24.8514 30.8374C25.4804 31.2483 26.3193 30.9333 26.5424 30.1976L28.1602 24.8598L26.2778 24.5544Z" fill="white"/>
<path d="M38.1726 0.449493C37.7725 0.188045 37.2423 0.310438 36.9885 0.723707L36.2991 1.84648L35.6647 1.43214C35.2645 1.17069 34.7343 1.29328 34.4806 1.70635C34.227 2.11923 34.346 2.6661 34.7464 2.92765L35.3807 3.34199L26.3918 17.9808C26.6798 17.9452 26.977 17.9484 27.2776 17.9971L30.1011 18.4551L30.1021 18.4516L35.1081 10.2991C35.3617 9.88599 35.2427 9.33931 34.8424 9.07777C34.5297 8.87352 34.1391 8.9047 33.8621 9.12337L38.4384 1.67069C38.6921 1.25771 38.573 0.710942 38.1726 0.449493Z" fill="white"/>
<path d="M36.2195 15.6684C36.2138 14.4993 35.7834 13.4311 35.081 12.6178L32.3071 17.1354L32.3153 18.814L32.3217 20.1287L27.0824 19.2787C26.0133 19.1053 25.0101 19.8587 24.8419 20.9614C24.6738 22.0642 25.4042 23.0988 26.4734 23.2723L33.9885 24.4913C35.1819 24.685 36.2588 23.7281 36.2529 22.4843C36.2349 18.8079 36.2204 15.832 36.2195 15.6684Z" fill="white"/>
<line y1="-0.5" x2="48.5216" y2="-0.5" transform="matrix(0.000727142 1 -1 0.000773255 46.3326 2.00006)" stroke="white"/>
</g>
<defs>
<clipPath id="clip0">
<rect x="0.876709" y="0.312012" width="48.3742" height="49.8923" fill="white"/>
</clipPath>
</defs>
</svg>
